<svg id="Layer_1" data-name="Layer 1" xmlns="http://www.w3.org/2000/svg" viewBox="0 0 841.89 595.28"><defs><style>.cls-1{fill:#fff;}</style></defs><title>VI white</title><path class="cls-1" d="M630.05,214.23l-3-2.79a9.56,9.56,0,0,0-2.9,1.19,30.4,30.4,0,0,1,3,2.66l3.17,2.61.72-2.84c-.43-.46-.53-.27-1-.83Z"/><path class="cls-1" d="M658.35,179.86c0,.44,0,.92,0,1.39,0-.87.07-1.11,0-1.39Z"/><polygon class="cls-1" points="572.11 265.53 584.36 265.56 584.74 267.16 584.75 265.51 572.11 265.53 572.11 265.53"/><path class="cls-1" d="M460.73,286.43a55.85,55.85,0,0,0,7.44-28.06,55,55,0,0,0-28-48.09A56.46,56.46,0,0,0,412,202.77q-20.75,0-36.7,14.43-18.19,16.55-18.21,41.37a55.27,55.27,0,0,0,5.3,24.26,27.08,27.08,0,0,1,6.49-10.28A26.43,26.43,0,0,1,384,264.88a42.31,42.31,0,0,1-.48-6.4q0-13.43,8.21-22a27.3,27.3,0,0,1,20.6-8.64c8.45,0,15.36,2.86,20.81,8.54s8.11,13.06,8.11,22.14S438.53,275,433,280.77a27,27,0,0,1-17.49,8.52,30.8,30.8,0,0,1,.18,3.22,26.66,26.66,0,0,1-8,19.58c-.62.62-1.26,1.2-1.9,1.75a58.38,58.38,0,0,0,6.26.34,56.18,56.18,0,0,0,28.35-7.35,54,54,0,0,0,20.31-20.4Z"/><path class="cls-1" d="M276.44,196.36a16.09,16.09,0,0,0,11.86-5,16.51,16.51,0,0,0,4.95-12.13,16.88,16.88,0,0,0-5-12.26,16.92,16.92,0,0,0-29,11.89,17,17,0,0,0,5,12.4,16.27,16.27,0,0,0,12.13,5.12Z"/><polygon class="cls-1" points="311.24 311.45 337.73 311.45 337.73 228.4 353.48 228.4 353.48 205.5 337.73 205.5 337.73 166.48 311.24 166.48 311.24 205.5 297.61 205.5 297.61 228.4 311.24 228.4 311.24 311.45 311.24 311.45"/><polygon class="cls-1" points="262.88 311.45 289.56 311.45 289.56 205.5 262.88 205.5 262.88 311.45 262.88 311.45"/><path class="cls-1" d="M234.23,196.36a16.09,16.09,0,0,0,11.86-5,16.52,16.52,0,0,0,5-12.13,16.89,16.89,0,0,0-5-12.26,16.92,16.92,0,0,0-29,11.89,17,17,0,0,0,5,12.4,16.27,16.27,0,0,0,12.13,5.12Z"/><polygon class="cls-1" points="220.67 311.45 247.35 311.45 247.35 205.5 220.67 205.5 220.67 311.45 220.67 311.45"/><polygon class="cls-1" points="210.19 168.21 182.14 168.21 145.65 269.97 109.63 168.21 81.58 168.21 132.29 311.45 158.58 311.45 210.19 168.21 210.19 168.21"/><path class="cls-1" d="M524.14,202.77a23.49,23.49,0,0,0-13.45,4.12,28.7,28.7,0,0,0-9.84,12V205.5H478.08v106h26.39V268.61l-.1-5.15c0-14.82,1.4-24.73,4.22-29.81s6.28-7.58,10.37-7.58a18.09,18.09,0,0,1,7.71,2.33l8.27-22.9a25.17,25.17,0,0,0-10.8-2.73Z"/><path class="cls-1" d="M744.6,230.65a21.18,21.18,0,0,1-9.94,11c-8.43,4-16.64,2.61-23.55-3.22-7.11-6-9-18.09-3.5-26.49,1.87-2.85,1.53-2.07,3.55-4.23,3-3.21,8.37-5,12.75-5.41a20.79,20.79,0,0,1,19.84,11.29,20.9,20.9,0,0,1,.85,17.1ZM682.9,189c-.23,1-.39,2-.63,2.87a32.45,32.45,0,0,1-4,8.33,27.13,27.13,0,0,1-7,7c-.47.35-.61.32-1,.62a26.92,26.92,0,0,1-13.1,4.25,27.21,27.21,0,0,1-16.61-4.25,14.48,14.48,0,0,1-2-1.44c-.45-.37-.63-.41-1.06-.77a28.66,28.66,0,0,1-6.89-8.69,28.26,28.26,0,0,1-1-23c1.95-4.64,3.44-6.45,6.72-9.89l2.3-2c.36-.28.65-.39,1.1-.72l3.21-1.94a25.76,25.76,0,0,1,5-1.91,35.55,35.55,0,0,1,6.13-1c5.16-.62,13.18,1.73,17.43,5,3.67,2.83,4,3.25,6.91,7,3.9,5,5.86,14.38,4.48,20.51ZM630.32,217.9l-3.17-2.61a30.4,30.4,0,0,0-3-2.66,9.56,9.56,0,0,1,2.9-1.19l3,2.79c.46.56.56.37,1,.83l-.72,2.84Zm-8.45,50.7a33.42,33.42,0,0,1-4.31,8.12L615.73,279a30.12,30.12,0,0,1-3.18,3.13c-.2.18-.27.32-.48.51a64.7,64.7,0,0,1-5.56,3.72c-.47.26-.91.44-1.47.7a10.87,10.87,0,0,1-1.36.64c-1,.36-1.93.75-3,1.1a39.82,39.82,0,0,1-6.79,1.35c-5,.75-13.43-.83-17.43-3.1-1.52-.86-2.47-1.26-4-2.28l-3.53-2.61-4-4.3c-7-8.46-9.22-21.39-5.26-32.06a39.41,39.41,0,0,1,4.34-8.11,28.85,28.85,0,0,1,3.88-4.42,31.45,31.45,0,0,1,7.21-5.24c4.32-2.43,5.82-2.24,9.13-3.32a25.64,25.64,0,0,1,3.58-.48c6.81-1.12,14.33,1.43,20,4.48a34.51,34.51,0,0,1,8.88,7.72,10.73,10.73,0,0,1,.93,1.23c.22.38.51.77.8,1.19,3.08,4.4,4.62,9.41,5.37,15.16a32.1,32.1,0,0,1-1.83,14.55Zm137-42.33a22.51,22.51,0,0,1-3.78-1.86l-.15-4.14,5.13-2.83c-.27-1.52-.47-4.27-1.33-5.45l-5.69,0-1.76-3.7a47.77,47.77,0,0,1,3.16-3.82c.3-.29.19-.09.43-.5l-1.43-2.52a24.24,24.24,0,0,1-1.59-2.19c-1.89.68-3.78,1.48-5.56,2.32a23.06,23.06,0,0,1-3.08-2.79l1.6-5.62c-1.21-.79-3.73-2.84-5.16-2.79-.73.79-3.13,3.73-3.82,4.3L732,193.5l-.85-6-5.93-.22-1.7,5.56-4.15.38-2.75-5a33.7,33.7,0,0,0-5,1.47l-.42.29.31,5.88A12.46,12.46,0,0,1,708,198c-1.11-.85-3.31-2.82-4.48-3.3l-2.57,1.92a13.51,13.51,0,0,0-1.08,1.07A2.91,2.91,0,0,0,699,199l-2.71-2a30.28,30.28,0,0,0-2.67-2l1.09-6,7.61-2.05-.12-7.15-7.49-1.52-1.4-5.61c.74-.58,5.61-4.16,6-4.83-.32-.82-2.16-6.06-3-6.73l-7.58,1.68-1.64-2.32c-.57-.76-1.06-1.48-1.54-2.25l2-3.5c.35-.6.6-1,1-1.67,1.19-2,1.3-1.77-2.56-5-.57-.48-1.85-1.82-2.39-1.69s-5.06,4-6.15,4.58L675,149.48c-.79-.5-1.64-.87-2.38-1.42.07-1.36,1.24-7.48.57-8a31.88,31.88,0,0,0-7.27-1.91c-.69,1.19-3.25,6-3.76,6.67l-5.69-.7-2.25-7.33-7.54.8-1,7.68-5.45,1.9-3.66-4.38a6.06,6.06,0,0,0-1.16-1.25l-3.46,1.6-1.67,1c-.8.43-.9.23-1.45,1l2.19,7.43-2.21,1.9a23.32,23.32,0,0,1-2.2,2c-1.54-.67-6-3.13-7.16-3-1,1.39-2.14,2.84-3,4.25-1.06,1.72-1.13,1.46.18,3.21.74,1,1.62,1.77,2.41,2.74.33.42.77,1,1.1,1.39a51.63,51.63,0,0,1-2.38,5.56l-7.21,0-1.5,7.25c1.14.55,6,2.66,6.68,3.25v5.88c-1.84.81-5.14,2-6.72,2.95.12.83.73,6.88,1.71,7.29l7.26.19a29.85,29.85,0,0,1,2.36,5.4l-2.47,2.65c-.47.51-.7,1-1.12,1.36s-.76.73-1.22,1.21l.79,1.86a18.65,18.65,0,0,0,3.33,4.28l3.64-1.23c-.77.64-1.6,1.44-2.42,2-1.4.95-2.85,2.21-4.21,3.21-1.13-.53-5.93-3.32-6.06-3.78l.93-9c-2-.82-6.8-2.85-8.53-2.65-1.45,2.58-3,5.35-4.31,7.92l-6.9-.7-2.05-7a4,4,0,0,0-1-2l-8.66,1.26-.58,4.54a37.18,37.18,0,0,1-.4,4.63l-6.63,2c-1.14-1.3-5-6.18-6-6.66-1.22.6-6.67,3.14-7.57,4.21l1.25,4.62a33.05,33.05,0,0,1,1.39,4.38c-.8.68-4.76,4.24-5,4.6l-3.18-1.49c-4-1.93-4.71-3.08-6-1.42-1,1.26-1.82,2.78-2.82,4a14.43,14.43,0,0,0-1,1.3c-.47.71-.27,1.12.24,1.64,1.51,1.57,4.06,4.37,5.42,6.1-1,2.15-1.83,4.53-2.94,6.58l-8.89-.14a4.33,4.33,0,0,0-.67,1.89c-.15.7-.26,1.36-.39,2.08a27.7,27.7,0,0,0-.8,4.27l5.91,3c.55.26,1.36.58,2,.94l.17,7.24c-.54.23-7.41,3-7.78,3.44.31,2.61.42,5.93,1.57,8.32l9,.39a69.37,69.37,0,0,1,2.95,6.61c-1.75,1.78-3.46,3.9-5.24,5.52-.41.37-.41.28-.7.78l1.62,2.86.65.84c.52.79,1.94,2.92,2.7,3.3l8.14-3.28,1,.89a2.53,2.53,0,0,1,.28.22c1,.95,2.92,2.73,3.9,3.47-.4,1.34-2.58,7.8-2.52,8.63,1,.7,6.63,4.53,7.49,4.14.46-.21,4-4.2,4.59-4.8s1-1,1.49-1.51l6.71,2.05,1,8.66c.47.67,2.93.77,3.95.92a22.88,22.88,0,0,0,4.19.41c.69-1.67,2.92-7,3.35-8.71l7-.67,2.15,3.87c.55.93,1.64,3.25,2.25,3.69l7.76-2.39c.74-.73-.5-7.49-.42-9a56.68,56.68,0,0,1,6.21-3.53l1.83,1.27c1.38,1,3.94,3.12,5.14,3.93a20.24,20.24,0,0,0,2.65-1.94c1.09-1,3.24-2.42,3.92-3.48-.66-1.59-3.25-6.75-4.09-8.14l3-4.45c.33-.48.62-1,1-1.42l8.79,1.69,1.94-3.68c2-4,1.93-3.39.47-4.68-1.92-1.7-4.24-2.83-6-4.72.33-1.69.81-3.45,1.06-5.14l.24-1.32c.14-.35,0-.09.19-.3l8.35-1.92.36-8.55c-1.21-.33-8.25-2.07-8.75-2.35l-1.56-6.81c1.68-1.32,5.42-4,6.7-5.31.72-.73.4-1.13,0-2-.82-1.6-2-4.58-2.59-5.72-.32-.57,0-.11-.33-.35l-8.84,1.79a69.16,69.16,0,0,1-4.27-5.54l3.69-6.78-.64,2.83a29.51,29.51,0,0,0,3,2c.65.45,2.28,1.62,3.23,1.59.55-.25,4.16-4.47,5.14-5.43l5.55,1.9.76,7.13c8.3,1.33,6.91,2,8.7-2.88a31,31,0,0,1,1.17-3.31l5.9-.66c.69,1.21,3,5.68,3.61,6.4,1.27-.29,6-1.19,6.81-1.87s-.18-6.45-.16-7.76a46.37,46.37,0,0,1,5-3.1c1.54,1.07,3,2.32,4.6,3.32a7,7,0,0,0,1.55,1,36.3,36.3,0,0,0,5.27-4.35,19.87,19.87,0,0,0-1.64-3.64,13.55,13.55,0,0,1-1.72-3.5,50.65,50.65,0,0,0,3.17-4.69l7.64,1.39c1-1.92,2.45-4.28,3-6.31l2.25,4a29.74,29.74,0,0,1-2.53,3.45L694.05,206a2.69,2.69,0,0,0-.88,1.14c-.19.43-.35.8-.55,1.28a10.07,10.07,0,0,0-.94,2.75l4.29,3.65c-.19,1-.37,3.32-.92,4.21-.88.17-4.55.62-5.18,1.24v5.56l5.51,1.47,1,4.1L694.05,233a9,9,0,0,0-2.17,1.66c.5,1.39,1.21,4.22,2.34,5.12l5.54-.87,1.87,2.45c.19.26.38.5.55.77l-2.53,5.15c.7.68,3.41,3.74,4.31,3.59s3.64-2.64,4.7-3l3.58,2-.42,5.66,5.3,1.77,3-4.91,4.07.37.34.75c.43,1.26.91,3.74,1.73,4.57l5.26-.55.95-5.59,4-1.49c.91.94,3,3.53,3.82,4,1.58-.68,3.7-1.37,4.95-2.59l-1.44-5.71,3-2.79a45.06,45.06,0,0,0,5.32,2.08c.58-.7,3.48-3.75,3.2-4.58-.22-.62-3-3.43-3.57-4.31l1.55-3.81,5.4-.17a2.55,2.55,0,0,0,.67-1.2c.71-2.78,1.85-4-.49-5.08Z"/><path class="cls-1" d="M388.46,310.66a17.38,17.38,0,0,0,3.17-.29,16.9,16.9,0,0,0,9.21-4.95A17.21,17.21,0,0,0,406,292.76a19.3,19.3,0,0,0-.42-4,17.48,17.48,0,0,0-4.78-8.8,17.17,17.17,0,0,0-12.55-5.27c-.32,0-.64,0-1,.05a17.6,17.6,0,0,0-16.73,17.64,19.86,19.86,0,0,0,.24,3,17.52,17.52,0,0,0,5,9.92,17,17,0,0,0,12.66,5.34Z"/><path class="cls-1" d="M684.9,321.65a30.06,30.06,0,0,0-10.27,12.48V320.19H650.88V430.75h27.54v-44.7l-.11-5.38c0-15.46,1.46-25.8,4.41-31.1s6.55-7.91,10.82-7.91c2.11,0,4.78.8,8,2.43l8.63-23.9A26.38,26.38,0,0,0,699,317.35a24.58,24.58,0,0,0-14.05,4.3Z"/><path class="cls-1" d="M556.33,361.67c3.12-6.83,6.52-11.62,10.16-14.32a33.15,33.15,0,0,1,20.32-6.52,31.43,31.43,0,0,1,18.76,5.79,27.93,27.93,0,0,1,10.82,15.05Zm29.17-44.32q-24.56,0-40.89,16.71c-10.85,11.17-16.3,25.15-16.3,42q0,24.64,16.37,41.09T587,433.59q16.8,0,29-5.92a55.47,55.47,0,0,0,20.95-18.35l-23.38-11a37,37,0,0,1-26.74,10.89q-13,0-21.36-7a29.78,29.78,0,0,1-10.34-18.73h89.14l.1-5.31q0-27.4-16.37-44.15T585.5,317.35Z"/><path class="cls-1" d="M478.36,317.35a41.22,41.22,0,0,0-15.68,3.12c-5.13,2-10.82,5.72-17.13,11V320.19H417.91V430.75h27.64V386.36c0-11.51.42-19,1.21-22.47,1.56-6.62,4.38-11.83,8.4-15.57a20.38,20.38,0,0,1,14.49-5.66,17.33,17.33,0,0,1,10.89,3.41,18.06,18.06,0,0,1,6.21,9.91q1.77,6.51,1.77,26.32v48.45H516v-73c0-12.77-3.19-22.37-9.64-28.86a38,38,0,0,0-27.95-11.51Z"/><path class="cls-1" d="M194.19,317.35a41.13,41.13,0,0,0-15.67,3.12c-5.14,2-10.82,5.72-17.14,11V320.19H133.74V430.75h27.64V386.36c0-11.51.42-19,1.22-22.47,1.56-6.62,4.37-11.83,8.39-15.57a20.38,20.38,0,0,1,14.5-5.66,17.35,17.35,0,0,1,10.89,3.41,18.1,18.1,0,0,1,6.2,9.91q1.77,6.51,1.77,26.32v48.45h27.43v-73c0-12.77-3.19-22.37-9.64-28.86a38,38,0,0,0-27.95-11.51Z"/><polygon class="cls-1" points="374.31 320.19 374.31 430.75 402.15 430.75 402.15 320.19 388.55 320.19 374.31 320.19 374.31 320.19"/><path class="cls-1" d="M324,397q-8.37,8.63-21.29,8.63-13.22,0-21.92-8.84t-8.74-22.64q0-13.32,8.54-22.1t21.64-8.77q13.31,0,21.74,8.63c5.62,5.76,8.43,13.22,8.43,22.44S329.63,391.25,324,397Zm7-76.82V332.4a56.88,56.88,0,0,0-17-11.51,46.35,46.35,0,0,0-18-3.54,48.57,48.57,0,0,0-35.16,14.43q-16.23,16-16.23,42.27,0,24.61,15.33,40.65a50,50,0,0,0,37.59,16.05,49,49,0,0,0,18.17-3.19A46,46,0,0,0,331,417q0,13.43-2.81,18.9t-9.6,8.95c-4.54,2.32-10.51,3.47-18,3.47a43.2,43.2,0,0,1-15.15-2.4A25.13,25.13,0,0,1,275,438.87H244.45A48.53,48.53,0,0,0,255.73,458,49,49,0,0,0,274.42,470q11.08,4,27.32,4,30.5,0,45.61-17.89c7.52-8.77,11.3-22.55,11.3-41.24V320.19Z"/><polygon class="cls-1" points="85.88 430.75 114.1 430.75 114.1 281.28 85.88 281.28 85.88 430.75 85.88 430.75"/><path class="cls-1" d="M558.29,201.82c2.92-.37,6.26-.71,9.19-1.23.54-2.28.66-4.67,1.38-7,.32-1,.63-2.13.91-3.24s.7-2.19,1-3.32a46.79,46.79,0,0,1,2.27-6l1.32-2.85c1.62-3.1,3.53-6.35,5.31-9.28a70.73,70.73,0,0,1,5.29-7.32,69,69,0,0,1,5.1-5.52l11.52-9.39a4.14,4.14,0,0,1,1.21-.78c.78-.41,1.72-1.14,2.5-1.64,3.49-2.22,12.31-6.27,16-7.23,2.05-.54,4.21-1.45,6.45-1.84,8.51-1.48,14.14-2.52,23-1.85a80.28,80.28,0,0,1,17.61,3.23c1.18.33,2,.69,3.13,1a41.86,41.86,0,0,1,6.09,2.39c1,.46,1.9.87,2.83,1.31a80.14,80.14,0,0,1,8,4.6c2.25,1.68,4.44,2.84,7.21,5.23l4.48,4c1,.92,3.82,3.74,4.56,4.73l1.18,1.47a2.48,2.48,0,0,0,.31.36l.89,1.09,1.81,2.34a80.36,80.36,0,0,1,5.83,9c1.24,2.25,2.37,4.83,3.44,7.18a4.54,4.54,0,0,0,.86,1.36l12.46.34c0-1.4-2.19-6.06-2.77-7.59a27.56,27.56,0,0,0-1.61-3.52c-.66-1.25-1.14-2.32-1.83-3.5-1.91-3.28-3.82-6.37-6-9.44a78.5,78.5,0,0,0-5.73-7.24l-1.28-1.37a91.35,91.35,0,0,0-17-14.34c-9.59-5.86-17.71-9.77-29.11-12.4a83.87,83.87,0,0,0-18.36-2.31,95.06,95.06,0,0,0-27.57,3.53,88.37,88.37,0,0,0-27.85,13.66,92,92,0,0,0-10,8.26c-.5.48-.74.8-1.31,1.35a98.13,98.13,0,0,0-9.5,11.25c-4.63,6-8,13.22-10.91,20.3a85.34,85.34,0,0,0-5.2,20.71c-.32,2.62.25,1.84,2.9,1.51Z"/><path class="cls-1" d="M705.48,263.23A79.4,79.4,0,0,1,700,269c-.59.58-2.73,2.6-3.39,3.07s-1.09.92-1.81,1.52c-1.12.95-4.81,3.53-5.69,4.09a79,79,0,0,1-10.4,5.86l-4.63,2c-.59.25-1.57.66-2.28.88a89.66,89.66,0,0,1-10.16,2.75,73.07,73.07,0,0,1-11.55,1.58,36.34,36.34,0,0,1-6.17,0,52.16,52.16,0,0,0-6.21-.1c-.66,2.15-1.45,4.47-2.21,6.59-2.07,5.71-2,4.94.64,5.16,16.07,1.37,30.51-.48,45-6.8,1.15-.5,2.11-.76,3.16-1.32s1.89-1,2.87-1.45a98.3,98.3,0,0,0,19.5-13.54l5.51-5.44c.39-.39.6-.84,1-1.28,1.23-1.25,6.45-7.27,6.49-8.56-1.71-.91-9.16-5.05-10.41-5.35l-3.84,4.5Z"/><path class="cls-1" d="M736.87,225.23a2.14,2.14,0,1,1-1.37-4c2.7-.94,4,3.22,1.37,4Zm-22.41-7c.18-.65,2.25-5.77,2.56-6.23.53-.8,2.72-.47,3.92-.47h8.8c1.68,0,3.24-.29,3.67.55.33.63,2.32,5.52,2.49,6.17l-21.44,0Zm.3,6.94A2.14,2.14,0,0,1,712,224a2.27,2.27,0,0,1,0-1.68,3.77,3.77,0,0,1,.49-.66c.43-.43.29-.22.67-.4,2.64-1.23,4.25,2.89,1.53,3.92Zm24.49-6.49c-1.17-.57-.75-.35-1.8-2.83-.84-2-1.89-5.35-3.26-6-1.1-.56-17-.48-17.91,0-2.35,1.08-3.15,8-5,8.89a3.65,3.65,0,0,0-2.13,2.53c-.35,1.36-.12,7.47-.12,9.35l2.54.12c.08,1.11-.17,2.61.25,3.57,1,2.41,4.33,1.45,4.67-.07l.24-3.58,17,0c.14,1.1-.12,2.56.25,3.53a2.42,2.42,0,0,0,2.29,1.57c2.92.07,2.47-2.95,2.65-5.12h2.56c0-1.81.23-7.95-.1-9.28a4,4,0,0,0-2.07-2.61Z"/><path class="cls-1" d="M667.12,200.85c0,.79-.25,1.17-.91,1.32v-3.83h.91c0,.83,0,1.73,0,2.51Zm-.89-9.33h.8l.09,3.1-.91,0,0-3.11Zm.88-6.79v2.67l0,.58-.89,0v-3.27Zm-1.59,17.57-2.64-.56c-2-.34-2.09.71-2.1-2.72v-.72h4.74v4Zm0-10.81v3.16H660.8l0-3.15Zm-3.65-5.38c1.37-.7,2.44-1.43,3.65-1.42V188h-4.72l0-1.14c.27-.47.52-.5,1.1-.79Zm1.15-1.38a5,5,0,0,1-2.22,1.05l0-1a6,6,0,0,1,2.24-.09Zm-4.65,17.66a19.25,19.25,0,0,1,.12-4.06H660l.07,2.92a6.74,6.74,0,0,1-1.73,1.15Zm.11-10.87H660l.07,3.09-1.68,0a9.43,9.43,0,0,1,.06-3.1Zm0-6.8H660c.08,1.76.25,1.21-.61,2.34l.68.08V188l-1.69,0a11.23,11.23,0,0,1,.08-3.29Zm-.79,17.37c-.62-.44-1.33-.4-1.72-1.08V198.3h1.74l0,3.78Zm0-10.59v3.14H656l0-3.15Zm0-6.8V188H656V184.7Zm-2.4,9.9-4.12,0,0-5.13,4.17,2,0,3.09Zm-2.09,7.62c-1-.43-.4-.77-2-.55v-5.36l4.09,2,0,3.26c-1.54.14-1.12.33-2.09.69Zm2.1-17.48V188h-1l.14-1.89-.45-.18c-.29-.2,0-.15-.49-.52a1.09,1.09,0,0,0-.17.81c.16.61,0,0,.2.31s.27-.26.22,1.39l-2.62,0,0-5.1,4.18,1.91Zm12.31,16.31,0-2.62,3.33-.14.07-3.6a3.09,3.09,0,0,1-1-.29l-.08-.08c-.31-.38-.1-.57-.7-1s-.12-.18-.86-.4v1.48l.25.23h-1l0-3,3.32-.13.08-3.43-3.38,0,0-3.2,3.32-.14.08-3.43-3.37,0c0-1,.12-1.52-.29-2l-.24,1.94-.86,0,0-1.46-.78,0c-.63-2.58-.72-1.92-.12-3.26l-.63-.5c.15-1.68,1-2.1-.83-2.77-.14-1.64,0-2.19-.74-2.17-.25.71-.11.16-.11.65l.06.62a15.49,15.49,0,0,1,.25,3.05c.89.55.09,0,.62.69.26.35.43.24.75.59l-.76-.09a13.23,13.23,0,0,1,1.54,4.68h-2.53l-.24-1.59-1.88,1.54c0-2.27.1-1.72-.44-1.93-.41.83-.25.7-.26,2l-1.7.07c0-.47,0-.95,0-1.39a2.72,2.72,0,0,0-.15-.25l-.49,1.63-1.7,0c0-2.37.13-1.89-.46-2-.4.9-.19.72-.25,2l-4.09-.07c.07-2,0-1.13-.31-1.48-.54,1.14-.33.52-.37,1.57-.89.06-.76,0-1.18.22.83,1.19.27.48,1.16,1l0,5.51-1.22.25c1,1,.34.36,1.19.88l0,5.5c-.8,0-.76,0-1.2.26l1.18,1.06,0,5.85-.74,1c7.42.25,14.86.64,22.27.11l-.13-1.66-4.3-.21Z"/><path class="cls-1" d="M658.35,179.86a4,4,0,0,0-.24-1.15l-.13.1-.27,2.43.49-1.63a2.72,2.72,0,0,1,.15.25Z"/><path class="cls-1" d="M657.21,174.94a15.41,15.41,0,0,1-.51-3.48l1.43-.12c-.12,1,.11,2.8-.43,3.6Zm.73-4.2c-.38.18-.6.31-1,.06.31-.24.52-.26,1-.06Zm-1.56-1.44a22.35,22.35,0,0,1-4.51-1.47c-.73-.27-3.13-1.26-3.94-1.49a1,1,0,0,0-.25-.06,1,1,0,0,1,.25.06l13.55,2.85-4.61.11Zm-6.48.06c-3.78.09-1.4,0-3.33.64-.29-1.43-.79-2.87-1.1-4.18,2.45,1,6.09,2.38,8.37,3.44l-3.94.1Zm-5.84.55c-1.18-.12-4.79-.62-5.61-.61l-2,0,.33-.23,3.89-1.61a41,41,0,0,1,4.34-1.68l-.91,4.08Zm-8.4-.35.45-.16c-.23.28.38.35-.45.16Zm22.45,9.15.08-.06-.57-.55a6.7,6.7,0,0,0,.77-1.63c.24-.95,0-1.2,0-2s.17-3.6.79-3.85l6.43-.07a3.55,3.55,0,0,0-1.61-1.18c-.8-.36-13-2.91-14.38-3.24C643.33,164.64,646,165,638.1,168a23.21,23.21,0,0,0-3.47,1.52l.07,2.69h1.55l.12-1.29h7.45l-.24,3.08.32.23a1,1,0,0,1,.13.09s.07,0,.09.08c.29.3.09-.11.19.43l-.86.5a3.53,3.53,0,0,0,.23,1.37l.28,18-1,3.66c-.67,1.48-1.88,2-1,3l7.3.12-1-2.91a3.56,3.56,0,0,1-1-2.7c-.1-5.44-.42-11.88-.66-17.42-.14-3.24.58-2.85-.51-4.15l1.07-.15,0-3c-.81,0-.79.06-1.2-.18,1.49-.18,8.85-.58,9.48-.33,1.13.44,1,3,1.17,4,.21,1.4-.26,2.15.84,2.81l-.28,1.25c.28.43.61.3.87.12l0-.28a.77.77,0,0,1,.1.18Z"/><path class="cls-1" d="M658,178.53l0,.28.13-.1a.77.77,0,0,0-.1-.18Z"/><path class="cls-1" d="M578.14,244c0-1.11,0-1.92,0-2.54,0,0,0,.06,0,.1v14.9c0-.78,0-1.48,0-1.84V244Z"/><path class="cls-1" d="M578.91,256.48l-1.65,0V241.38l1.65.08c0,.25,0,.54,0,.87s0,1,0,1.67v10.62c0,.22,0,.55,0,.94l0,.92Z"/><path class="cls-1" d="M578.09,258.4a2,2,0,0,0,0,.43c0-.2,0-.42,0-.65v.22Z"/><path class="cls-1" d="M577.32,259a3.05,3.05,0,0,1-.06-.6v-.22l1.65,0c0,.21,0,.41.05.59l-1.64.26Z"/><path class="cls-1" d="M611.33,273.79l-41.93-.08c-.31-.57-.16-3.79-.1-4.43l42.1,0-.07,4.56ZM574,263.57V236.41l32.67,0,.09,27.14-32.76,0Zm39.29,3.73c-5-.21-11.4,0-16.67,0-.68,0-.56.32-.57-1.18,0-.13,0-.25,0-.41.3-.18.37-.19.43-.18h.11l11.89-.16c.22-.26.16.29.11-.47-.28-4,0-18.09,0-22.55l.09-7.89H572.1v31.08l12.64,0v1.65c-1.31.43-6.85-.07-7.33,0-1.55.27-7.94.11-10,.1v8.42l45.9,0,0-8.37Z"/><path class="cls-1" d="M601.45,258.4a1.05,1.05,0,0,1-.05.26l0,.12,0,.15-.27.2a1,1,0,0,1-.29.13l-7.39,0H580.17a.93.93,0,0,1-.56-.2l-.22-.19h-.06a1,1,0,0,1,0-.19l0-.12a1.37,1.37,0,0,1,0-.19v-.26c0-.53,0-1.11,0-1.68v-15a4.48,4.48,0,0,1,0-.46l.13,0,.23-.16a.89.89,0,0,1,.5-.15h20.38a.9.9,0,0,1,.91.9V258.4Zm2.32-20.79c-1.14-.7-4.6-.75-11-.59l-1.94,0-2.09,0c-7.46-.1-10.1-.05-10.85.2-2.64.89-2.59,3-2.54,4.82,0,.3,0,.62,0,.95v13.67c0,2.73,0,4.24,1,5.28.9.89,2.17,1.08,4.67,1.08.79,0,1.7,0,2.76,0,1.61,0,3.59-.07,6-.06h1.69c7.62.08,10.56,0,11.26-.13,2.66-.66,2.62-3.38,2.59-5.18V244.16c0-.35,0-.73,0-1.11.07-2.05.15-4.38-1.6-5.44Z"/><path class="cls-1" d="M590.77,252.09c-1.31,1-3.07-.27-3.07-2a2.94,2.94,0,0,1,4.26-2.66c-.07.89-.72,4.25-1.19,4.61Zm5-9.37a9.37,9.37,0,0,0-12.91,2.76,8.68,8.68,0,0,0,3.76,12.36c3.66,1.69,6.88.68,10.09-.5l-.83-1.91c-.86.16-1.55.6-2.54.84-8.22,2-12.43-6-7.61-10.92a7.14,7.14,0,0,1,9.54-.31c3.62,3.19.92,8.7-2,7.18l1.07-5.39.26-1.08-1.9-.4-.48-.1a11.12,11.12,0,0,0-1.43-.16h-.46l-.48,0a4.84,4.84,0,0,0-3.62,2.55c-1.75,3.52.54,7.54,4.42,6.72,1.71-.36.56-.59,2.26,0a4.35,4.35,0,0,0,2.74-.08,5.16,5.16,0,0,0,3.09-3.09c1.38-3.55-.83-7.12-3-8.49Z"/></svg>