<svg id="Layer_1" data-name="Layer 1" xmlns="http://www.w3.org/2000/svg" viewBox="0 0 1920 1080"><defs><style>.cls-1{fill:#fff;}</style></defs><title>OSUT alb</title><path class="cls-1" d="M878.89,673.1c3.36-9.41,6.49-18.27,9.69-27.1,4-11,8.21-21.87,11.9-33,1.24-3.75,3-4.6,6.75-4.59q79,.19,157.94.09a50.9,50.9,0,0,0,12.17-1.15c8.16-2,13.94-6.64,17.29-14.35A98.89,98.89,0,0,1,1099.3,583c3.07-5.36,1.82-10.08-3.81-12.63-3.8-1.72-7.87-2-12-2q-65.29,0-130.59-.18a52.9,52.9,0,0,1-19-3.77c-19.7-7.59-28.65-25.1-22.3-47.19,6-20.81,13.79-41.1,20.76-61.62,3.11-9.12,6.27-18.22,9.2-27.39,5.39-16.92,16.36-25.79,34.06-27.26,2-.17,4.09-.18,6.14-.18q113.57,0,227.15-.11c4.66,0,6.15.39,4.23,5.5q-10.26,27.31-19.73,54.93c-1.2,3.5-2.84,4.31-6.31,4.3-52.84-.11-105.67,0-158.51-.11-11.42,0-21.35,2.54-27.57,13.24-3.16,5.43-2.38,11.45-2.65,17.23-.14,3.07,2.66,5.18,5.6,6.33a26.75,26.75,0,0,0,9.86,1.41q64.74,0,129.48.17a55.82,55.82,0,0,1,13.21,1.8c25.43,6.23,36.07,24.11,29.17,49.5-3.41,12.53-8.78,24.4-13.32,36.54q-10,26.82-20.36,53.53c-8.09,21-18.57,28.1-41,28.1H878.89Z"/><path class="cls-1" d="M1332.92,400.73c-9,25.26-17.69,49.86-26.43,74.45q-19.65,55.24-39.33,110.48a27.69,27.69,0,0,0-1.66,10.39c.32,8.59,4.24,12.48,12.87,12.48q49.38,0,98.76,0c14.83,0,23.18-5.74,28.17-19.7q14-39.26,27.84-78.58,18.6-52.68,37.18-105.36c.79-2.23,1.25-4.3,4.7-4.27,23.81.2,47.62.12,71.42.14.32,0,.64.25,1.31.53l-20.84,58.56q-33,92.68-66,185.37c-6.49,18.22-19.81,27.82-39.22,27.84q-102.68.1-205.35,0a57.64,57.64,0,0,1-13.25-1.57c-19.3-4.56-28-19.13-25.19-40.72,2.39-18.05,9.5-34.64,15.54-51.53,20.65-57.74,41.6-115.38,62.28-173.11,1.46-4.06,3.12-5.67,7.75-5.6C1286.36,400.9,1309.24,400.73,1332.92,400.73Z"/><path class="cls-1" d="M1684.51,518l47.28-42.26.84.42-9.12,25.38-60.24,167.31c-.71,2-.67,4.28-4,4.27-24.32-.11-48.64-.06-73.57-.06,6.38-17.74,12.56-35,18.76-52.18q26.93-74.77,53.82-149.55c.67-1.86,2-3.67,1.35-5.86,2.12-4.51,5.93-7.53,9.45-10.82,2.3-.92,3.93-3,6.42-3.63l52.4-47.42c1.76-1.59,3.29-3.19,6.14-3.17,17.46.15,34.92.07,52.64.07-.09,2.49-2.07,3.56-3.3,4.93q-47.6,53.05-95.31,106c-1.86,2.07-3.62,4.22-5.43,6.34,0,1.63-1.39,2.28-2.19,3.3-.42.14-.5.38-.2.68a1.11,1.11,0,0,1,.49-.86A11,11,0,0,1,1684.51,518Z"/><path class="cls-1" d="M1669.86,455.4c-3.55,3.21-6.08,7.46-10.19,10.11H1546.51c5.67-15.63,11.09-30.59,16.52-45.54,2-5.4,4.12-10.74,5.9-16.19.74-2.28,1.66-3.3,4.21-3.29,29.95.1,59.9.09,89.84.13.28,0,.56.3,1.24.7l-17.77,23.39c2,1.59,2.74-.46,3.63-1.22,7.89-6.79,15.68-13.68,23.51-20.54,1.23-1.07,2.27-2.42,4.19-2.42,13.12,0,26.25,0,40.27,0l-43.89,49.12C1673.58,452.22,1671.41,453.57,1669.86,455.4Z"/><path class="cls-1" d="M887.6,734.42c4.59-6.44,10.26-9.43,17.87-8.91,7.4.51,12.46,5.27,12.43,12.82,0,8.78-2.58,17.23-4.15,25.78-2.14,11.64-2.38,11.4-14.43,11.6-4.64.08-5.82-1-4.62-5.67,1.62-6.27,2.61-12.72,3.6-19.13.28-1.78,1.59-4.69-.93-5.36-3-.79-3.25,2.23-3.67,4.39-1.42,7.28-3,14.54-4.1,21.87-.48,3.1-1.75,4.06-4.72,3.85a58.58,58.58,0,0,0-9.46,0c-3.94.37-4.31-1.5-3.67-4.64,1.34-6.53,2.65-13.08,3.74-19.66.35-2.06,2.4-5.35-1.28-5.92-3.38-.53-3,3.21-3.43,5.31q-2.09,9.78-3.61,19.69c-.55,3.6-1.63,5.35-5.9,5.28-13.1-.21-13.13,0-10.73-12.84,1.39-7.47,2.72-14.95,4.38-22.36,2.38-10.65,14.1-17.63,24.49-14.71C883.45,727,885.84,730,887.6,734.42Z"/><path class="cls-1" d="M1743,465.47c23.81-21.49,46.59-42,69.28-62.62a8,8,0,0,1,5.91-2.35c9.11.1,18.22,0,27.36,0,.6,2-1.12,2.64-2,3.63-16.36,19.25-32.83,38.42-49.12,57.74a9.17,9.17,0,0,1-8,3.64C1772.4,465.34,1758.33,465.47,1743,465.47Z"/><path class="cls-1" d="M1002.52,761.33c-1.87,9.46-3.91,18.89-5.52,28.39-.5,2.94-1.32,4-4.43,4-14.22.3-14.22.41-11.66-13.43,1.89-10.21,3.7-20.45,5.73-30.64,2.5-12.56,15.81-24.88,28.64-24.45A19.8,19.8,0,0,1,1034,743.49c.72,13.82-5.28,24-17,30.9-9.08,5.31-12,3.66-12.81-6.44-.69-2.51-.21-5.11-.61-7.68-.46-3,.35-5.56,4.46-4.7a4.1,4.1,0,0,0,3.14-.81,5.16,5.16,0,0,0,2.6-5.13,2.75,2.75,0,0,0-2.42-2.64c-2.32-.25-3.87,1-4.89,2.94C1004.57,753.51,1004,757.59,1002.52,761.33Z"/><path class="cls-1" d="M1595.84,742.27c1.9-9.82,3.93-19.61,5.63-29.46.5-2.91,1.4-4,4.52-4.07,14.31-.35,14.27-.46,11.56,13.6-2,10.2-3.62,20.45-5.79,30.6-3,14.19-15.17,24.26-28.6,24.16a18.16,18.16,0,0,1-18-13.67c-4.24-14.67,6.53-33.53,21.36-37.42,5.92-1.55,7.08-.76,7.61,5.17.68,2.94,0,6,.36,8.87.57,4.31.67,7.89-5.46,7.07-1.48-.2-2.75,1-3.57,2.36-1.19,1.91-1.6,4,.43,5.48,1.8,1.33,3.63.4,5-1,2.1-2.25,2.55-5.32,3.57-8.08C1594.85,744.64,1595,743.32,1595.84,742.27Z"/><path class="cls-1" d="M1717.79,775.61c-9.23,0-9.22,0-7.4-9.14,1-5.09,2.13-10.17,2.86-15.3.26-1.92,1.68-5.11-1.29-5.67-3.22-.61-3.42,2.92-3.89,5.09-1.39,6.52-2.68,13.09-3.58,19.69-.54,4-1.89,6-6.29,5.4-4-.55-9.73,1.69-11.7-.88-1.71-2.24.59-7.65,1.28-11.62,1-5.85,2.17-11.67,3.29-17.49a25,25,0,0,1,29.37-20,14.92,14.92,0,0,1,12,14.75c-.27,11.18-3.54,21.93-5.4,32.88-.32,1.91-1.38,2.35-3.09,2.29C1721.88,775.55,1719.84,775.61,1717.79,775.61Z"/><path class="cls-1" d="M1139.53,775.62c-9.26,0-9.29,0-7.6-9.2.87-4.74,2.07-9.43,2.75-14.19.33-2.3,2.08-6-1.19-6.7s-3.41,3.18-3.9,5.57c-1.29,6.36-2.47,12.74-3.5,19.14-.59,3.71-1.69,6.09-6.25,5.47-4-.55-9.67,1.23-11.77-.86-2.26-2.26.69-7.54,1.34-11.5q1.52-9.33,3.43-18.6a25,25,0,0,1,29.54-19c8.47,1.93,13.22,10.47,11.38,20.62-1.23,6.74-2.66,13.45-3.93,20.19C1148.13,775.61,1148.16,775.62,1139.53,775.62Z"/><path class="cls-1" d="M1520.25,726.87c9.21,0,9.27,0,7.72,9-.92,5.29-2.15,10.53-3,15.84-.3,1.82-1.66,4.67,1.08,5.29,3.14.7,3.73-2.32,4.18-4.71,1.21-6.38,2.5-12.75,3.44-19.17.65-4.43,2.08-6.58,7.32-6.37,11.91.49,11.9.14,9.63,11.85-1.27,6.56-2.27,13.17-3.66,19.7-2.72,12.7-16,21.22-28.72,18.61-8.29-1.71-13.62-9.54-12.23-19s3.52-18.59,5.12-27.92c.4-2.32,1.26-3.23,3.57-3.06C1516.53,727,1518.39,726.88,1520.25,726.87Z"/><path class="cls-1" d="M631.44,726.88c8.74,0,8.74,0,7.2,8.36-1,5.64-2,11.3-3.07,17-.34,1.93-1.5,4.48,1.59,4.86,2.51.31,3.14-2.08,3.54-4.17,1.36-7.09,3-14.15,4-21.3.53-3.79,2-5.28,5.69-4.72a15.08,15.08,0,0,0,2.23,0c11,0,11,0,9,10.59-1.34,6.92-2.54,13.86-4.11,20.72a24.5,24.5,0,0,1-28.55,18.7c-6.58-1.27-12.21-7.28-12.27-14-.11-11.58,3.64-22.63,5.28-34,.27-1.85,1.75-2.12,3.37-2.06C627.35,726.93,629.4,726.88,631.44,726.88Z"/><path class="cls-1" d="M1289.88,726.88c8.83,0,8.84,0,7.29,8.45q-1.55,8.48-3.12,17c-.33,1.82-1.13,4.15,1.28,4.74s3.45-1.63,3.87-3.74c1.47-7.46,3-14.91,4.24-22.41.47-3,1.51-4,4.59-4.08,14.2-.43,14.2-.53,11.49,13.59-1.16,6-2.11,12.07-3.48,18a24.63,24.63,0,0,1-28.81,18.41c-6.61-1.42-12-7.43-12-14.26,0-11.4,3.64-22.3,5.24-33.49.27-1.83,1.54-2.3,3.25-2.22C1285.79,726.94,1287.84,726.88,1289.88,726.88Z"/><path class="cls-1" d="M1393.85,775.62c-10.2,0-10.21,0-8.52-9.07a34.44,34.44,0,0,0,.83-3.8c.33-4.34.95-7.85,6.9-7.44,3,.2,5.09-2.61,6.83-5.13a78.15,78.15,0,0,0,7.87-15.26,74.2,74.2,0,0,1,9.26-16.37c6.9-9.26,16.38-10.54,26.81-9.74,2.25.17,2.26,1.46,2,3-.88,5.3-1.92,10.58-2.72,15.89-.41,2.64-2.26,2.57-4.12,2.59-6.07,0-9.87,3.4-12.85,8.32a81.28,81.28,0,0,0-6.09,13.08,58.35,58.35,0,0,1-7,13.21C1408.12,771.81,1402.39,777.48,1393.85,775.62Z"/><path class="cls-1" d="M579.55,775.62c-4.64,0-9.29-.14-13.93,0-2.92.12-3.37-.95-2.86-3.61,3.77-19.86,7.42-39.74,11.07-59.62.46-2.48,1.33-4.17,4.32-3.63a19.46,19.46,0,0,0,3.33,0c13.25,0,13.25,0,10.77,12.86-2,10.37-3.84,20.78-6.07,31.1-.89,4.13.37,5.07,4.35,5.06,10.47,0,10,.08,8.55,10.16-.89,6.32-3.29,8.61-9.51,7.69C586.3,775.22,582.9,775.62,579.55,775.62Z"/><path class="cls-1" d="M1473.8,708.82c8.71,0,8.72,0,7.31,8.73a25.61,25.61,0,0,1-.67,3.27c-1.27,4.24-1.06,7.2,4.7,6.08,3.3-.64,4.37.87,3.56,4.07a34.44,34.44,0,0,0-1.22,6.56c-.27,5.36-2.42,8.2-8.22,7-2.76-.56-4.13.55-3.87,3.52a11.23,11.23,0,0,1-.55,2.72c-1.61,8.5-1.61,8.58,7,8.05,1.66-.1,2.12.38,2.79,1.76,5.29,10.78,4.06,13.47-7.53,16-15.39,3.41-23.9-4.55-21.26-20.29,2.34-13.9,5.61-27.66,7.53-41.62C1464.47,707.06,1469.39,709.07,1473.8,708.82Z"/><path class="cls-1" d="M756.58,708.83c9.23,0,9.23,0,7.48,8.91a20.76,20.76,0,0,1-.7,3.26c-1.75,4.71-.48,6.79,4.77,5.9,3.07-.52,4.61.47,3.45,4a21.84,21.84,0,0,0-1.15,6c-.21,5.63-2,9.24-8.58,7.72-2.34-.54-3.29.68-3.42,3a41.2,41.2,0,0,1-.72,4.38c-1.34,8-1.32,8.09,6.5,7.09,2.16-.28,3.14.23,3.59,2.19a3.27,3.27,0,0,0,.13.54c4.34,11.4,3.3,13.16-8.94,15.13-10.55,1.7-17.68-1.35-19.71-8.85a30.68,30.68,0,0,1-.14-13.25c2.17-12.4,4.64-24.76,7-37.13C747.82,708.83,747.83,708.83,756.58,708.83Z"/><path class="cls-1" d="M1772.62,726.27a6.89,6.89,0,0,0,1.63.54c8.46.63,8.46.63,6.78,8.74-.33,1.63-.67,3.27-.89,4.91-.4,3-1.59,4.83-5,4.09-4.94-1.07-7,1.28-7.08,6a17.35,17.35,0,0,1-.69,3.81c-1,4.13.44,6.51,4.66,5.07,4.92-1.68,6,1,7.09,4.65,2.85,9.28,2.92,9.17-6.39,11.92a33.68,33.68,0,0,1-10.46,1.09c-8.14-.17-13.08-5.14-13.21-13.24-.2-13.68,4.27-26.64,6.17-40,.1-.73.31-1.45.44-2.18,2.48-14,2.47-14,17.07-12.9,2.47.18,3.24.76,2.67,3.28C1774.34,716.74,1773.54,721.48,1772.62,726.27Z"/><path class="cls-1" d="M1187.8,708.83c9.71,0,9.71,0,8,9a18.58,18.58,0,0,1-.56,3.28c-1.67,4.39-.77,6.61,4.41,5.73,3.78-.64,4.5,1.29,3.64,4.53a23.32,23.32,0,0,0-1,5.44c-.11,5.73-2.07,9.12-8.57,7.71-2.2-.48-3.48.37-3.51,2.89a28,28,0,0,1-.71,4.95c-1.43,7.6-1.42,7.73,6.45,6.59,2.11-.31,3.16.07,3.72,2a4.75,4.75,0,0,0,.14.54c4.38,11.14,3.26,13.1-8.68,15.27-10.07,1.83-17.26-1-19.72-8.05-1.55-4.46-1.17-9.26-.4-13.78,2.39-14.07,5.31-28,7.72-42.1C1179.85,706,1185,710,1187.8,708.83Z"/><path class="cls-1" d="M1247.75,725.57c6.56-.66,11.35,2.56,14.86,8.19,1.65,2.66,1.62,4.6-1.61,6.19-3.81,1.88-7.32,4.35-11.08,6.32-1.44.75-2.49,2.31-5-.12-2.77-2.76-4.28,1.16-4.79,3.53-1.4,6.51-2.73,13.06-3.56,19.66-.62,4.95-2.54,6.64-7.76,6.43-11.57-.48-11.57-.14-9.3-11.7,1.21-6.17,2.27-12.38,3.52-18.54C1225.56,733.29,1235,725.57,1247.75,725.57Z"/><path class="cls-1" d="M1816.1,726.87c9.16,0,9.24,0,7.63,9-2.14,11.86-4.52,23.69-6.6,35.57-.54,3.09-1.6,4.67-5,4.26a55.26,55.26,0,0,0-6.69,0c-7.33,0-7.28,0-5.83-7.45,2.13-10.91,4.26-21.83,6.24-32.78C1807.41,726.89,1807.31,726.87,1816.1,726.87Z"/><path class="cls-1" d="M1853.07,751.79c-9.09,0-9.17,0-8-8.36,1.42-10.45,3-20.87,4.46-31.31.29-2.15.78-3.4,3.3-3.33q7.21.21,14.44,0c2.62-.08,3.24,1,2.71,3.34-2.85,12.43-5.43,24.93-8.62,37.27C1860.13,754,1855.51,750.79,1853.07,751.79Z"/><path class="cls-1" d="M1817.59,465.47,1860,426.6l.79.39c-3.85,10.84-7.88,21.61-11.44,32.53-1.45,4.46-3.31,6.52-8.44,6.1C1833.58,465,1826.19,465.47,1817.59,465.47Z"/><path class="cls-1" d="M1860.11,763.56c-.08,7.56-5.23,13.16-12.12,13.17-5.76,0-8.54-3-8.52-9.21,0-7.75,5.45-13.59,12.49-13.46C1857.69,754.16,1860.17,757.06,1860.11,763.56Z"/><path class="cls-1" d="M1810.26,715.59c0-6.76,4.64-11.92,10.55-11.75,4.58.13,7,2.95,6.92,8.16-.07,6.53-4.39,11.43-10.16,11.52C1812.11,723.6,1810.27,721.6,1810.26,715.59Z"/><path class="cls-1" d="M815.44,708.78c1.64.59,5.41-1.61,4,3.14-.09.28.67,1.15.81,1.1.63-.22,1.56-.57,1.69-1.06,1.49-5.71,6-2.42,9.13-3,2.12-.4,1.45,1.55,1.29,2.71-1.18,8.26-12.92,13.63-20,9.22-3.62-2.26-3.75-5.53-3.11-9.25C810,707.54,813.07,709.19,815.44,708.78Z"/><path class="cls-1" d="M1751.39,800.43c1-4.15,3.7-7.39,1.47-11.88-1.3-2.6,1.14-5.63,4.09-7s5.78-1.54,8.28.77c2.35,2.18,2.38,5,1.17,7.68a50.21,50.21,0,0,1-4.64,8.8C1759.06,802.52,1755.11,799.84,1751.39,800.43Z"/><path class="cls-1" d="M1669.86,455.4c.24-2.8,2.37-4.19,4.3-5.73l1.38,1.39C1674,453,1672.6,455.06,1669.86,455.4Z"/><path class="cls-1" d="M886.67,402.36c-3.2-.81-5.6-.46-8,2-4.43,4.5-9.12,8.75-13.72,13.08q-25.12,23.7-50.36,47.47c9.67,4.06,12.35,10.74,8.56,21.45q-12.21,34.61-24.63,69.13c-4.57,12.72-9.15,25.45-14,38.08-3.61,9.45-10.76,14.77-20.86,14.83-35.35.22-70.69.17-106,.09-5.75,0-9.32-3.36-10.44-8.93A20.82,20.82,0,0,1,648,588c2.41-6.62,4.71-13.27,7.06-19.92q14.19-40.08,28.37-80.17c6.12-17.22,13.81-22.66,31.88-22.66,3.53,0,7.08-.2,10.59.06,3.08.23,5.12-.89,7.14-3.17,13.22-14.86,26.57-29.59,39.87-44.37l15.32-17.07c-20.44,0-39.74,0-59-.05-2.17,0-3.37,1.25-4.74,2.44q-12.84,11.13-25.65,22.28l-1.34-1.3,18.9-23c-18.14,0-35.8-1.08-53.27.3-17.31,1.38-29.44,11.16-34.7,28.44-2,6.56-4.43,13-6.78,19.43-18.68,51.17-35.59,103-55.42,153.74-5,12.69-8.14,25.84-7.12,39.69,1,14,9,24.11,22.44,28a55.55,55.55,0,0,0,15.37,2.36q103.53,0,207,0c18.41,0,32.38-10.25,38.57-27.47q30.75-85.53,61.45-171.08c4.64-13,8.39-26.15,8.08-40.16C911.65,417,903.38,406.62,886.67,402.36Z"/><path class="cls-1" d="M739.7,465.28c15.75,0,31.55-.39,47.31.19,6.53.25,10.79-1.72,14.38-6.89,2.64-3.79,6-7.1,9-10.63l40.32-47.22c-14.3,0-27.59,0-40.88,0-1.94,0-3,1.13-4.23,2.27q-32.34,29.82-64.69,59.63C740.19,463.26,738.79,463.72,739.7,465.28Z"/><path class="cls-1" d="M1684.51,518l-3.45,3.32a1,1,0,0,1-1.52-.12l3.14-3.43Z"/><path class="cls-1" d="M535.25,628.27c-7.87,39.2-23.57,74.65-48.85,105.63s-56.1,54-93.13,68.73a227.66,227.66,0,0,1-115.34,14.48c-99-12.8-182.28-90.7-197.31-195.19A229.65,229.65,0,0,1,212.86,380.43c1.14-.32,2.36-.5,3.12-1.89-1.61-.21-3-.34-4.19.84-22.59,4.42-45.16,8.91-67.78,13.17a15.82,15.82,0,0,0-8.26,4.11c-63.56,59.18-92.37,132-84.65,218.58C56.47,675.35,80.78,727.53,123.42,770c65.38,65.13,144.68,90.31,235.15,72.37,89.89-17.83,152.24-71.71,188.93-155.48a8.6,8.6,0,0,0,.58-5.87C543.71,663.47,539.5,645.87,535.25,628.27Z"/><path class="cls-1" d="M628.23,235.3a5.1,5.1,0,0,0-.93.56q-143,129.67-286,259.36Q299,533.56,256.61,571.76l-.15-1.54c.43-.58.83-1.21,1.31-1.75q64.67-71.1,129.33-142.21,42-46.17,83.84-92.41h0a11.33,11.33,0,0,0,4.58-5.61c-3.18.57-4.56,2.4-5.9,4.3a11.56,11.56,0,0,0-1.34.95q-108.48,97.81-217,195.62c-1.54,1.38-2.69,3.54-6.13,3.71,19.72-24.74,39-48.93,58.29-73.11s38.71-48.48,58.35-73.08c-2.05-.62-3.57-1.14-5.13-1.53-32.28-8.07-64.59-8.26-97.14-1.28C161.12,404.91,90,499.84,97.45,600.09c3.75,50.46,22.07,94.72,57.42,130.82,52.75,53.88,117.19,74.08,191.25,60.41C475.3,767.5,549.81,625,496.91,504.42c-2-4.53-3.11-4.27-6.44-1.21q-76.87,70.85-154,141.46-11.7,10.76-23.45,21.46a7.86,7.86,0,0,1,2-4q59.7-71.5,119.39-143Q490.75,451.68,547,384.2a5.62,5.62,0,0,0,2.82-4.84l-3,3.21q-85.56,78.94-171.13,157.89-53.83,49.65-107.71,99.27l-1.6-.18c.8-1,1.55-2.07,2.42-3Q401.65,488.91,534.59,341.28q47-52.17,93.81-104.44h0c1.31-1.22,3.42-1.92,2.86-4.85Z"/><path class="cls-1" d="M1679.54,521.24l1.52.12c-.87,1.34-1.8,2.61-3.88,2.94A3.59,3.59,0,0,1,1679.54,521.24Z"/><path class="cls-1" d="M713.29,727.58c-8.35-4.24-16.9-2.87-24.58,2.68a33,33,0,0,0-13.47,21.6q-3.25,17.48-6.63,34.93c-1.32,6.87-1.35,6.87,5.87,6.87a36.8,36.8,0,0,1,5.56.05c4.17.64,5.74-1.06,6.39-5.18,1.6-10.13,3.7-20.19,5.6-30.27l1,.12c.21,4.37.4,8.73.62,13.09.31,6,1.24,6.65,7.06,5.21,11.26-2.8,21.72-15.74,22.49-27.71C723.72,740,721.71,731.86,713.29,727.58Zm-15.68,29.9c-1.61-.91-4.87,0-5-3.1-.26-5.06,3.51-9.26,7.7-9.26,3.35,0,4.53,2,4.49,5C704.72,754.68,702.05,756.72,697.61,757.48Z"/><path class="cls-1" d="M836.11,741.25c-1.31-9.59-8.45-15.63-17.84-15.68-18.73-.09-33.51,18.51-29.28,36.85,1.74,7.53,7.62,13.38,14.41,14.54,3.36.57,5.59-.05,6.73-3.75,1.26-4.05,3.13-7.91,4.74-11.86l1.06,1.22c.71,4.32-4.1,9.69-.38,12.38,3,2.14,8.59.58,13,.66.37,0,.74,0,1.11,0a2,2,0,0,0,2.28-1.93C833.58,762.89,837.64,752.37,836.11,741.25Zm-24.43,16c-2.85.32-4.91-.85-4.85-4.39.07-4.08,3.11-7.76,6.87-7.76s4.79,2.11,4.28,5.57C819.11,755.8,815.45,756.86,811.68,757.28Z"/><path class="cls-1" d="M1076.78,725.57c-15.53,0-28.71,14-28.77,30.66,0,10.87,5.93,19.24,14.83,20.67,11.06,1.78,19.49-2.82,26.31-11.12.64-.78,1.66-1.54.69-2.87-1.69-2.31-11.39-4.7-13.89-3.25s-5.38,1.32-8.12.79a3.56,3.56,0,0,1-2.9-3.65c.16-2.24,2.33-1.21,3.58-1.22,7.62-.11,15.24-.05,22.87-.07,1.6,0,3.2.38,3.86-2C1099.37,738.24,1090.08,723.78,1076.78,725.57Zm-.32,21.36c-3.13.13-6.26.05-10.15.05,3.75-5.1,8-6.53,11.22-4.42a3.65,3.65,0,0,1,2,3.17C1079.35,747.83,1077.53,746.88,1076.46,746.93Z"/><path class="cls-1" d="M1646.9,755.58c3.71-.16,7.42-.06,11.14-.06h4.45c12.13,0,13.35-1.41,11.82-13.63-1.21-9.6-8.66-15.38-17.93-16.52-14.8-1.83-32.31,15.45-30,34.68,1.31,10.73,8.92,16.93,19.77,17.1,9.27.14,15.66-4.81,21.36-11.24.7-.8,1.52-1.67.7-2.93-1.53-2.36-11.3-4.8-13.87-3.34s-5.39,1.38-8.11.8a3.78,3.78,0,0,1-2.94-3.68C1643.44,754.54,1645.64,755.63,1646.9,755.58Zm5.24-13.85c3.16-.1,5.34,1.07,6,5.09h-12.91C1646.29,743.11,1648.77,741.83,1652.14,741.73Z"/></svg>